<svg width="231" height="35" viewBox="0 0 231 35" fill="none" xmlns="http://www.w3.org/2000/svg"> <path d="M28.5592 12.2302C24.1787 12.1269 20.0051 13.7461 16.7973 16.7434C13.8654 19.4995 10.0367 20.9809 6.03561 20.8776C3.96605 20.8431 1.99998 20.3608 0.171875 19.534C0.24086 20.0852 0.344337 20.6364 0.482307 21.1532C2.24143 21.8077 4.10402 22.1867 6.00111 22.2556C6.13908 22.2556 6.27705 22.2556 6.41502 22.2556C10.6576 22.2556 14.6587 20.6709 17.7631 17.708C20.6949 14.9519 24.5236 13.4705 28.5247 13.5739C30.5943 13.6083 32.5949 14.0906 34.423 14.9175C34.354 14.3662 34.2505 13.815 34.147 13.2982C32.3534 12.6781 30.4908 12.2991 28.5592 12.2302Z" fill="#23E0B8"></path> <path d="M16.9005 21.0499C12.6579 25.2874 6.24228 26.0798 1.17188 23.496C1.41332 24.1505 1.72376 24.7707 2.06868 25.3908C3.75882 26.0454 5.55243 26.3554 7.34604 26.3554C11.1402 26.3554 14.9689 24.9085 17.8663 22.049C22.3158 17.6392 29.1108 16.9502 34.3192 20.0164C34.3882 19.5341 34.4572 19.0517 34.4917 18.535C28.8694 15.5032 21.6604 16.3301 16.9005 21.0499Z" fill="#21C0C4"></path> <path d="M17.0043 25.3561C13.5896 28.939 8.41571 29.9381 4.03516 28.2845C4.62153 28.9735 5.27689 29.6281 5.96674 30.2482C6.72557 30.386 7.5189 30.4549 8.31223 30.4549C11.8305 30.4549 15.3832 29.0768 18.0046 26.3207C21.9713 22.1865 28.2489 21.4975 32.9744 24.3914C33.1814 23.978 33.3538 23.5302 33.4918 23.1167C28.2834 19.9817 21.3849 20.774 17.0043 25.3561Z" fill="#1EA1D0"></path> <path d="M17.1421 29.6628C15.383 31.6265 13.0375 32.7634 10.623 33.0735C11.4509 33.418 12.2787 33.6936 13.141 33.9003C15.0381 33.2802 16.7627 32.1433 18.1769 30.5585C21.3502 26.9756 26.4896 26.1143 30.5942 28.1125C30.9047 27.768 31.1806 27.389 31.4565 27.01C26.7311 24.5984 20.7983 25.5286 17.1421 29.6628Z" fill="#1C81DC"></path> <path d="M17.2466 33.9691C17.1431 34.1069 17.0052 34.2447 16.8672 34.3825C17.0052 34.3825 17.1431 34.3825 17.2811 34.3825C17.764 34.3825 18.2814 34.3481 18.7643 34.3136C20.8338 32.1087 23.8347 31.1785 26.6631 31.6264C27.1805 31.2819 27.6634 30.9374 28.1462 30.5584C24.2831 29.456 19.937 30.6618 17.2466 33.9691Z" fill="#1A61E8"></path> <path d="M7.10546 17.9838C7.17445 17.9838 7.24343 17.9838 7.31242 17.9838C11.2101 17.846 14.8663 16.2268 17.5567 13.4017C21.7303 9.09532 28.0769 8.13068 33.2163 10.6112C32.9404 9.9566 32.6299 9.33648 32.3195 8.7508C26.9732 6.85597 20.7645 8.13068 16.5909 12.4716C12.2104 17.0192 5.41533 17.846 0.137969 14.8832C0.0689843 15.3655 0.0344925 15.8823 0 16.3646C2.17303 17.467 4.58751 18.0527 7.10546 17.9838Z" fill="#2CE8AE"></path> <path d="M8.03577 13.3672C11.6575 13.2294 14.9343 11.7135 17.3833 9.09523C19.5563 6.75253 22.5226 5.37447 25.7304 5.27112C27.3516 5.20221 28.9038 5.47782 30.3869 5.9946C29.8006 5.30557 29.1452 4.65099 28.4209 4.06531C27.5241 3.92751 26.5928 3.85861 25.6615 3.89306C22.0742 4.03086 18.7974 5.54673 16.3485 8.16504C14.1754 10.5077 11.2091 11.8858 8.00128 11.9891H7.96679C5.6213 12.0581 3.34479 11.4724 1.37872 10.301C1.20625 10.7144 1.03379 11.1623 0.861328 11.6102C3.06885 12.8504 5.51782 13.4361 8.03577 13.3672Z" fill="#35F0A3"></path> <path d="M8.62302 8.40598C8.7265 8.40598 8.82998 8.40598 8.89896 8.40598C12.0723 8.33708 15.0041 7.02793 17.2117 4.75413C19.2122 2.68704 21.8337 1.5846 24.5241 1.51569C23.6618 1.10228 22.7305 0.792213 21.7647 0.516602C19.7296 1.06782 17.7635 2.13582 16.2114 3.78949C14.2798 5.82212 11.6929 6.95902 8.86447 7.02793C7.17434 7.06238 5.55319 6.71786 4.1045 5.99438C3.79407 6.3389 3.51813 6.71786 3.24219 7.09683C4.86334 7.99257 6.72593 8.40598 8.62302 8.40598Z" fill="#3EF799"></path> <path d="M9.34737 3.82411C9.51983 3.82411 9.72679 3.82411 9.89925 3.82411C12.6587 3.68631 15.1766 2.4805 17.0392 0.447869C17.1772 0.275611 17.3496 0.137806 17.4876 0C17.4186 0 17.3496 0 17.2807 0C16.6598 0 16.0734 0.0344512 15.4525 0.103354C13.9004 1.55032 11.9343 2.37715 9.83027 2.4805C9.34737 2.51496 8.89897 2.48051 8.41607 2.44605C7.86419 2.79057 7.31231 3.16953 6.79492 3.5485C7.58825 3.72076 8.45056 3.82411 9.34737 3.82411Z" fill="#47FF8E"></path> <path d="M62.914 5.68484C62.8795 5.68484 62.845 5.68484 62.845 5.68484C62.0172 5.68484 61.2584 5.8571 60.534 6.20162C59.8442 6.54613 59.2923 7.0629 58.8784 7.71748C58.6025 8.1998 58.3955 8.71657 58.3265 9.30225C58.2575 9.2678 58.1885 9.23334 58.1196 9.19889C57.0848 8.71657 55.8776 8.47541 54.5323 8.47541C53.1871 8.47541 51.9799 8.71657 50.9451 9.19889C49.9103 9.68121 49.0825 10.3358 48.4961 11.1971C47.9098 12.0584 47.5993 13.0575 47.5993 14.1599C47.5993 15.8136 48.1857 17.1916 49.393 18.2596C49.6344 18.5008 49.9448 18.673 50.2208 18.8798C49.6689 19.0865 49.186 19.3621 48.8411 19.741C48.1512 20.3956 47.8063 21.188 47.8063 22.1182C47.8063 23.0484 48.0822 23.7374 48.5996 24.2197C48.9101 24.4953 49.255 24.7365 49.6344 24.9088C48.8066 25.1155 48.1857 25.46 47.7718 25.9423C47.1854 26.6658 46.875 27.4582 46.875 28.3539C46.875 29.6286 47.5304 30.6966 48.8411 31.5923C50.1518 32.4881 52.1524 32.9359 54.8083 32.9359C56.326 32.9359 57.7057 32.7292 58.9474 32.2814C60.1891 31.8335 61.1549 31.2134 61.8793 30.421C62.6036 29.5942 62.983 28.664 62.983 27.5615C62.983 26.3557 62.5346 25.3566 61.6378 24.6331C60.741 23.9097 59.4993 23.5307 57.8781 23.5307H52.9457C52.1179 23.5307 51.4625 23.3929 51.0141 23.0828C50.5657 22.7728 50.3243 22.3249 50.3243 21.6703C50.3243 21.1535 50.5657 20.6712 51.0141 20.2234C51.29 19.9822 51.6695 19.7755 52.1524 19.6032C52.8767 19.7755 53.67 19.8444 54.5323 19.8444C55.8776 19.8444 57.0848 19.6032 58.1196 19.1209C59.1543 18.6386 59.9822 17.9496 60.5685 17.0883C61.1549 16.227 61.4308 15.2279 61.4308 14.1255C61.4308 12.9886 61.1204 12.0239 60.5685 11.1626C60.3961 10.887 60.1891 10.6459 59.9477 10.4391C60.0167 9.68121 60.3271 9.09554 60.81 8.71657C61.3964 8.2687 62.2587 8.06199 63.3624 8.06199C63.3969 8.06199 63.4659 8.06199 63.5004 8.06199C63.5349 8.06199 63.5694 8.06199 63.6039 8.06199L62.983 5.65039C62.983 5.68484 62.9485 5.68484 62.914 5.68484ZM51.9109 25.8389H57.1193C58.3955 25.8389 59.2578 26.0112 59.7407 26.3902C60.2236 26.7347 60.4651 27.217 60.4651 27.8371C60.4651 28.3195 60.2581 28.8018 59.8442 29.2152C59.4303 29.6286 58.8094 30.0076 57.9816 30.2487C57.1538 30.5243 56.05 30.6621 54.7393 30.6621C53.0492 30.6621 51.7384 30.421 50.7727 29.9042C49.8069 29.4219 49.324 28.7329 49.324 27.906C49.324 27.2515 49.5654 26.7347 50.0828 26.3557C50.6002 26.0112 51.1866 25.8389 51.9109 25.8389ZM57.4642 16.6749C56.6709 17.3294 55.7051 17.6395 54.5323 17.6395C53.3596 17.6395 52.3938 17.3294 51.6005 16.6749C50.8071 16.0203 50.4277 15.1934 50.4277 14.1599C50.4277 13.0919 50.8071 12.2651 51.6005 11.6105C52.3938 10.9559 53.3596 10.6459 54.5323 10.6459C55.7051 10.6459 56.6709 10.9559 57.4642 11.6105C58.2575 12.2651 58.637 13.0919 58.637 14.1599C58.637 15.1934 58.2575 16.0203 57.4642 16.6749Z" fill="black"></path> <path d="M73.2269 8.44092C71.9162 8.44092 70.8124 8.71653 69.8811 9.2333C68.9498 9.75007 68.26 10.5425 67.8115 11.576L67.4321 8.81988H65.2246V25.7011H67.915V16.537C67.915 15.2623 68.1565 14.2288 68.6394 13.4019C69.1223 12.5751 69.7086 11.955 70.3985 11.576C71.1228 11.1626 71.8127 10.9559 72.5025 10.9559C73.0544 10.9559 73.4683 10.9903 73.7443 11.0248C74.0202 11.0592 74.2961 11.1281 74.5721 11.2315L75.055 8.75098C74.8135 8.61317 74.5031 8.50982 74.1582 8.47537C73.8477 8.47537 73.5373 8.44092 73.2269 8.44092Z" fill="black"></path> <path d="M88.4395 9.50864C87.1977 8.81961 85.7835 8.4751 84.1969 8.4751C82.6102 8.4751 81.196 8.81961 79.9888 9.50864C78.7471 10.1977 77.7813 11.1968 77.0914 12.5404C76.4016 13.8495 76.0566 15.4343 76.0566 17.2602C76.0566 19.0861 76.4016 20.6365 77.0914 21.9801C77.7813 23.2892 78.7471 24.2883 79.9888 25.0118C81.2305 25.7008 82.6447 26.0453 84.1969 26.0453C85.7835 26.0453 87.1977 25.7008 88.4395 25.0118C89.6812 24.3228 90.647 23.3237 91.3368 21.9801C92.0267 20.6709 92.3716 19.0861 92.3716 17.2602C92.3716 15.4343 92.0267 13.884 91.3368 12.5404C90.647 11.1968 89.6812 10.1977 88.4395 9.50864ZM89.0258 20.6709C88.5774 21.6356 87.9566 22.3935 87.1632 22.9103C86.3354 23.427 85.3696 23.7026 84.2314 23.7026C83.0931 23.7026 82.0928 23.4615 81.2995 22.9103C80.4717 22.3935 79.8508 21.6356 79.4369 20.6709C78.9885 19.7063 78.7815 18.5694 78.7815 17.2258C78.7815 15.8822 78.9885 14.7108 79.4369 13.7806C79.8853 12.816 80.5062 12.0925 81.2995 11.5757C82.1273 11.059 83.0931 10.7833 84.2314 10.7833C85.3696 10.7833 86.3699 11.059 87.1632 11.5757C87.9911 12.0925 88.6119 12.816 89.0258 13.7806C89.4742 14.7453 89.6812 15.8822 89.6812 17.2258C89.6812 18.5694 89.4742 19.7063 89.0258 20.6709Z" fill="black"></path> <path d="M107.753 17.984C107.753 18.9831 107.615 19.8443 107.339 20.5334C107.064 21.2569 106.684 21.8425 106.201 22.2904C105.718 22.7383 105.166 23.0828 104.546 23.2895C103.925 23.4962 103.304 23.5996 102.683 23.5996C101.338 23.5996 100.269 23.2895 99.5442 22.6349C98.7853 21.9803 98.4404 20.809 98.4404 19.1209V8.78543H95.75V19.8443C95.75 21.2913 96.0604 22.4971 96.6468 23.3928C97.2332 24.2886 98.0265 24.9776 98.9923 25.3566C99.9581 25.77 100.958 25.9767 102.062 25.9767C103.407 25.9767 104.58 25.7355 105.58 25.2877C106.581 24.8398 107.374 24.0819 107.96 23.0828L108.133 25.6322H110.513V8.75098H107.822V17.984H107.753Z" fill="black"></path> <path d="M126.45 9.12995C125.45 8.68208 124.346 8.44092 123.139 8.44092C122.277 8.44092 121.449 8.57872 120.655 8.81988C119.862 9.06104 119.138 9.47446 118.551 10.0257C118.137 10.4047 117.758 10.887 117.482 11.4382L117.31 8.78543H114.93V25.6666H117.62V16.6748C117.62 15.2279 117.896 14.091 118.413 13.2297C118.931 12.3684 119.621 11.7483 120.414 11.3693C121.242 10.9903 122.035 10.7836 122.863 10.7836C124.036 10.7836 125.036 11.1626 125.829 11.8861C126.623 12.6095 127.037 13.9187 127.037 15.7791V25.6322H129.727V14.8489C129.727 13.4019 129.417 12.1961 128.83 11.2315C128.244 10.3013 127.45 9.61227 126.45 9.12995Z" fill="black"></path> <path d="M146.385 11.5069C146.006 10.7146 145.419 10.06 144.695 9.50875C143.66 8.78527 142.453 8.44076 141.073 8.44076C139.659 8.44076 138.383 8.78527 137.141 9.4743C135.934 10.1633 134.934 11.1624 134.209 12.4716C133.45 13.7807 133.105 15.3655 133.105 17.2259C133.105 19.0518 133.45 20.6021 134.14 21.9457C134.83 23.2549 135.761 24.254 136.934 24.9775C138.107 25.6665 139.383 26.011 140.797 26.011C141.763 26.011 142.694 25.8387 143.557 25.4598C144.419 25.1153 145.143 24.564 145.764 23.875C146.109 23.4616 146.385 23.0137 146.592 22.497L146.765 25.632H149.144V1.03369H146.454V11.5069H146.385ZM145.73 20.5332C145.281 21.5323 144.66 22.2902 143.867 22.8415C143.074 23.3927 142.143 23.6683 141.039 23.6683C139.383 23.6683 138.072 23.0826 137.141 21.9113C136.21 20.7399 135.761 19.1896 135.761 17.2603C135.761 15.331 136.244 13.7807 137.176 12.6094C138.107 11.438 139.452 10.8524 141.177 10.8524C142.212 10.8524 143.108 11.0935 143.902 11.6103C144.695 12.0926 145.281 12.8161 145.73 13.7463C146.178 14.6765 146.385 15.7789 146.385 17.0536C146.385 18.3283 146.178 19.5341 145.73 20.5332Z" fill="black"></path> <path d="M162.287 16.537L158.079 15.6757C157.147 15.5035 156.526 15.1934 156.181 14.78C155.837 14.3666 155.664 13.9187 155.664 13.4019C155.664 12.9196 155.802 12.4717 156.112 12.0583C156.423 11.6794 156.871 11.3693 157.423 11.1281C158.01 10.887 158.699 10.7836 159.493 10.7836C160.424 10.7836 161.321 11.0248 162.149 11.4726C163.011 11.9205 163.632 12.644 164.011 13.6431L166.288 12.1617C165.736 10.9559 164.874 10.0601 163.735 9.40556C162.597 8.75098 161.183 8.44092 159.527 8.44092C158.182 8.44092 157.044 8.68208 156.078 9.12995C155.112 9.57782 154.353 10.1979 153.801 10.9559C153.284 11.7138 153.008 12.5751 153.008 13.4708C153.008 14.6422 153.353 15.6068 154.077 16.3992C154.802 17.1916 155.974 17.7428 157.596 18.0873L161.666 18.9142C162.528 19.0864 163.114 19.3965 163.39 19.7754C163.701 20.1544 163.839 20.6023 163.839 21.0846C163.839 21.8425 163.494 22.4282 162.839 22.8761C162.149 23.3239 161.217 23.5651 160.045 23.5651C158.699 23.5651 157.527 23.2895 156.595 22.7038C155.63 22.1181 154.905 21.3258 154.422 20.2578L152.111 21.9114C152.87 23.1861 153.905 24.1852 155.319 24.8743C156.699 25.5633 158.217 25.9078 159.872 25.9078C161.217 25.9078 162.39 25.7011 163.39 25.2532C164.391 24.8398 165.184 24.2197 165.77 23.4273C166.322 22.6349 166.598 21.7047 166.598 20.6367C166.598 19.6032 166.288 18.7075 165.667 18.0184C164.977 17.3983 163.873 16.8815 162.287 16.537Z" fill="black"></path> <path d="M187.053 22.5313L182.465 8.78516H179.74L175.153 22.5313L170.876 8.78516H167.875L173.773 25.6664H176.464L180.948 12.2303L185.742 25.6664H188.433L194.296 8.78516H191.295L187.053 22.5313Z" fill="black"></path> <path d="M207.369 9.47419C206.265 8.78516 204.92 8.4751 203.333 8.4751C201.781 8.4751 200.401 8.81961 199.159 9.50864C197.952 10.1977 196.986 11.1968 196.296 12.5404C195.607 13.8495 195.262 15.4343 195.262 17.2602C195.262 19.0861 195.607 20.6365 196.296 21.9801C196.986 23.2892 197.987 24.2883 199.228 25.0118C200.47 25.7008 201.919 26.0453 203.505 26.0453C204.609 26.0453 205.609 25.9075 206.506 25.5975C207.403 25.2874 208.162 24.874 208.852 24.2883C209.507 23.7371 210.059 23.0481 210.507 22.2901L208.369 21.0499C207.886 21.8767 207.265 22.4968 206.506 22.9792C205.713 23.4615 204.713 23.7026 203.471 23.7026C202.333 23.7026 201.332 23.4615 200.505 22.9447C199.677 22.4279 199.056 21.7045 198.607 20.7398C198.263 19.9819 198.056 19.0861 197.952 18.0871H210.68C210.714 17.8459 210.749 17.5703 210.783 17.2602C210.818 16.9502 210.818 16.6056 210.818 16.2267C210.818 14.7797 210.507 13.4706 209.956 12.3337C209.335 11.059 208.507 10.1288 207.369 9.47419ZM200.401 11.5757C201.194 11.059 202.16 10.8178 203.264 10.8178C204.713 10.8178 205.885 11.2657 206.748 12.127C207.576 12.9538 208.024 14.1251 208.058 15.6065H198.021C198.125 14.9175 198.297 14.2974 198.539 13.7806C198.987 12.816 199.608 12.0925 200.401 11.5757Z" fill="black"></path> <path d="M218.959 23.6339C218.269 23.6339 217.751 23.4616 217.441 23.1515C217.13 22.8415 216.958 22.2213 216.958 21.3945V1.03369H214.268V21.4979C214.268 23.0137 214.613 24.1506 215.268 24.9086C215.923 25.6665 216.958 26.011 218.338 26.011C218.786 26.011 219.235 25.9765 219.648 25.9076C220.062 25.8387 220.476 25.7009 220.821 25.5631L221.27 23.186C220.787 23.3582 220.373 23.496 220.097 23.5649C219.786 23.5994 219.407 23.6339 218.959 23.6339Z" fill="black"></path> <path d="M229.271 23.5305C228.961 23.5994 228.616 23.6339 228.168 23.6339C227.478 23.6339 226.96 23.4616 226.65 23.1515C226.339 22.8415 226.167 22.2213 226.167 21.3945V1.03369H223.477V21.4979C223.477 23.0137 223.821 24.1506 224.477 24.9086C225.132 25.6665 226.167 26.011 227.547 26.011C227.995 26.011 228.443 25.9765 228.857 25.9076C229.271 25.8387 229.685 25.7009 230.03 25.5631L230.479 23.186C229.961 23.3582 229.547 23.4616 229.271 23.5305Z" fill="black"></path> </svg>